<svg width="25" height="24" viewBox="0 0 25 24" fill="none" xmlns="http://www.w3.org/2000/svg">
<path d="M21.0245 18.0309V11.8107C21.0245 7.16097 17.2552 3.3916 12.6054 3.3916C7.95565 3.3916 4.18628 7.16097 4.18628 11.8107V18.0309" stroke="#00B0FF" stroke-width="1.2"/>
<path d="M23.1001 14.379C23.1001 13.7069 23.1001 13.3709 22.9693 13.1142C22.8543 12.8884 22.6707 12.7048 22.4449 12.5898C22.1882 12.459 21.8522 12.459 21.1801 12.459H20.5781V18.0308H21.1801C21.8522 18.0308 22.1882 18.0308 22.4449 17.9C22.6707 17.785 22.8543 17.6014 22.9693 17.3756C23.1001 17.1189 23.1001 16.7829 23.1001 16.1108V14.379Z" fill="#00B0FF"/>
<path d="M2.1001 14.379C2.1001 13.7069 2.1001 13.3709 2.23089 13.1142C2.34594 12.8884 2.52951 12.7048 2.75531 12.5898C3.012 12.459 3.34803 12.459 4.0201 12.459H4.62213V18.0308H4.0201C3.34803 18.0308 3.012 18.0308 2.75531 17.9C2.52951 17.785 2.34594 17.6014 2.23089 17.3756C2.1001 17.1189 2.1001 16.7829 2.1001 16.1108V14.379Z" fill="#00B0FF"/>
<path d="M8.34619 17.7789C8.34619 17.8804 8.42497 17.9644 8.52623 17.9709C8.62146 17.9813 8.80149 17.9912 8.9243 17.9912C9.19644 17.9912 9.98526 18.0728 10.4207 18.1477C10.8937 18.2257 11.4718 18.3754 11.9136 18.5319C12.128 18.6099 12.3184 18.6712 12.3252 18.6712C12.3319 18.6712 12.3252 16.9759 12.3252 14.9031C12.3252 12.7322 12.3252 11.7163 12.3252 11.324C12.3252 11.1992 12.2488 11.088 12.1327 11.0422C11.8255 10.9214 11.1892 10.6691 10.506 10.3873C9.9256 10.149 9.34498 9.91115 8.76471 9.6725C8.56538 9.59051 8.34652 9.73701 8.3465 9.95255L8.34619 17.7789Z" fill="#00B0FF"/>
<path d="M13.0976 11.047C12.9839 11.0935 12.9096 11.2042 12.9096 11.3271V14.8959C12.9065 16.9719 12.9028 18.6708 12.9096 18.6708C12.92 18.6708 13.0522 18.623 13.1984 18.5689C14.0216 18.2497 15.0076 18.0662 16.2657 17.9913C16.3857 17.9839 16.4993 17.9759 16.5949 17.9689C16.7512 17.9573 16.8713 17.8278 16.8717 17.6711C16.8734 17.0617 16.8768 15.5123 16.874 13.7167L16.8647 9.95367C16.8642 9.73868 16.646 9.59273 16.4471 9.67432L13.0976 11.047Z" fill="#00B0FF"/>
<path d="M6.07502 15.4466V19.5647C6.07502 19.5647 6.51366 19.5408 6.95231 19.5205C8.51642 19.4456 9.96198 19.5985 10.9277 19.9349C11.0875 19.9889 11.3971 20.1251 11.6115 20.2307C12.1422 20.499 12.431 20.6081 12.5944 20.6081C12.7676 20.6081 13.0465 20.5031 13.5705 20.2411C14.6247 19.7108 15.7403 19.507 17.5288 19.5137C18.0423 19.5174 18.6137 19.5309 18.7973 19.5444L19.1272 19.5715V15.4496C19.1272 13.0185 19.1272 11.9362 19.1272 11.5377C19.1272 11.4384 19.0333 11.3669 18.9375 11.3932C18.8259 11.4238 18.68 11.4645 18.5424 11.5052L18.0454 11.6631C17.8951 11.7274 17.9327 11.8662 17.9308 12.0009C17.9264 12.3127 17.9285 15.2152 17.9285 15.2152C17.9285 15.2152 17.9285 18.0068 17.9285 18.3302C17.9285 18.5811 17.8735 18.5909 17.7642 18.624C17.6548 18.6572 17.4975 18.6504 16.933 18.6671C16.4673 18.6806 15.9365 18.7076 15.7596 18.7284C14.6575 18.8574 13.7636 19.1194 12.9368 19.554L12.6106 19.724L12.1209 19.4828C10.9887 18.9223 9.9923 18.7149 8.23717 18.6707L7.46377 18.6745C7.36069 18.6745 7.27697 18.591 7.27697 18.4879L7.26053 11.7924C7.2604 11.7251 7.21594 11.666 7.15137 11.6473L6.65327 11.5051C6.5167 11.4646 6.37359 11.4242 6.26391 11.3937C6.16841 11.3672 6.0744 11.4378 6.074 11.5369C6.07241 11.9338 6.07502 15.4466 6.07502 15.4466Z" fill="#00B0FF"/>
</svg>
