<svg width="24" height="24" viewBox="0 0 24 24" fill="none" xmlns="http://www.w3.org/2000/svg">
<path d="M11.2758 3.04289C11.5637 2.42945 12.4363 2.42945 12.7242 3.04289L15.2447 8.41277L20.961 9.28614C21.6046 9.38449 21.8675 10.1696 21.4127 10.6356L17.25 14.9021L18.2241 20.874C18.3316 21.5331 17.632 22.0261 17.0475 21.703L12 18.9128L6.95247 21.703C6.36801 22.0261 5.66836 21.5331 5.77587 20.874L6.75 14.9021L2.58726 10.6356C2.13253 10.1696 2.39536 9.38449 3.03904 9.28614L8.75532 8.41277L11.2758 3.04289Z" fill="#00B0FF"/>
<mask id="mask0_16271_16905" style="mask-type:alpha" maskUnits="userSpaceOnUse" x="2" y="2" width="20" height="20">
<path d="M11.2758 3.04289C11.5637 2.42945 12.4363 2.42945 12.7242 3.04289L15.2447 8.41277L20.961 9.28614C21.6046 9.38449 21.8675 10.1696 21.4127 10.6356L17.25 14.9021L18.2241 20.874C18.3316 21.5331 17.632 22.0261 17.0475 21.703L12 18.9128L6.95247 21.703C6.36801 22.0261 5.66836 21.5331 5.77587 20.874L6.75 14.9021L2.58726 10.6356C2.13253 10.1696 2.39536 9.38449 3.03904 9.28614L8.75532 8.41277L11.2758 3.04289Z" fill="black" fill-opacity="0.9"/>
</mask>
<g mask="url(#mask0_16271_16905)">
<rect width="12" height="24" fill="#00B0FF"/>
</g>
</svg>
