<svg width="48" height="48" viewBox="0 0 48 48" fill="none" xmlns="http://www.w3.org/2000/svg">
<circle cx="24" cy="24" r="24" fill="white" fill-opacity="0.3"/>
<circle cx="24" cy="24" r="23.5" stroke="black" stroke-opacity="0.1"/>
<path fill-rule="evenodd" clip-rule="evenodd" d="M19.9358 17.3196C17.8727 17.3196 16.2273 18.965 16.2273 21.0281C16.2273 22.3201 16.5803 23.3618 17.7355 24.7492C18.9067 26.1558 20.8521 27.8567 24 30.4245C27.1479 27.8567 29.0933 26.1558 30.2645 24.7492C31.4197 23.3618 31.7727 22.3201 31.7727 21.0281C31.7727 18.965 30.1273 17.3196 28.0642 17.3196C26.3713 17.3196 25.4231 18.2378 24.6455 19.1126C24.4816 19.297 24.2467 19.4024 24 19.4024C23.7533 19.4024 23.5184 19.297 23.3545 19.1126C22.5769 18.2378 21.6287 17.3196 19.9358 17.3196ZM14.5 21.0281C14.5 18.011 16.9187 15.5923 19.9358 15.5923C21.8636 15.5923 23.1325 16.4544 24 17.2865C24.8675 16.4544 26.1364 15.5923 28.0642 15.5923C31.0813 15.5923 33.5 18.011 33.5 21.0281C33.5 22.7843 32.964 24.2065 31.5918 25.8545C30.2656 27.4472 28.1155 29.3019 24.8538 31.9568L24.5529 32.2076C24.2326 32.4745 23.7674 32.4745 23.4471 32.2076L23.1462 31.9568C19.8845 29.3019 17.7344 27.4472 16.4082 25.8545C15.036 24.2065 14.5 22.7843 14.5 21.0281Z" fill="black" fill-opacity="0.54"/>
</svg>
