<svg width="32" height="32" viewBox="0 0 32 32" fill="none" xmlns="http://www.w3.org/2000/svg">
<rect width="32" height="32" rx="16" fill="#00B0FF" fill-opacity="0.12"/>
<path fill-rule="evenodd" clip-rule="evenodd" d="M20.4829 8.52049C20.5795 8.49545 20.681 8.49359 20.7788 8.51366C20.8764 8.53375 20.9685 8.57569 21.0473 8.6367C21.1262 8.69777 21.1899 8.77663 21.2338 8.8662C21.2777 8.95562 21.3011 9.05372 21.3012 9.1533V10.8701C21.3018 11.0826 21.2313 11.7284 21.101 11.8965C20.9707 12.0644 20.7876 12.184 20.5815 12.2363L17.4174 13.1318C17.187 13.1918 17.0398 13.2971 17.0239 13.5459L16.8569 20.4521C16.9784 21.667 15.9813 22.9148 14.4672 23.3486C12.8075 23.825 11.1544 23.1425 10.7768 21.8252C10.3994 20.5079 11.4397 19.0544 13.1001 18.5781C14.007 18.3185 14.9106 18.4035 15.6059 18.749L15.7378 14.3428L15.8159 10.5615C15.8155 10.3496 15.8855 10.1432 16.0151 9.97557C16.1447 9.80815 16.3266 9.68856 16.5317 9.63573L20.4829 8.52049Z" fill="#00B0FF"/>
</svg>
