<svg width="24" height="25" viewBox="0 0 24 25" fill="none" xmlns="http://www.w3.org/2000/svg">
<path d="M12 20.6279C16.6079 20.6279 20.5 16.7358 20.5 12.1279C20.5 7.52008 16.6079 3.62793 12 3.62793C7.39215 3.62793 3.5 7.52008 3.5 12.1279C3.5 16.7358 7.39215 20.6279 12 20.6279ZM12 5.32793C15.6865 5.32793 18.8 8.44148 18.8 12.1279C18.8 15.8144 15.6865 18.9279 12 18.9279C8.31355 18.9279 5.2 15.8144 5.2 12.1279C5.2 8.44148 8.31355 5.32793 12 5.32793Z" fill="#121212"/>
<path d="M12 16.3779C12.7659 16.3779 14.1939 16.2351 15.1509 15.2797L13.9491 14.0761C13.5725 14.4527 12.8432 14.6779 12 14.6779C10.6179 14.6779 9.45 13.51 9.45 12.1279C9.45 10.7458 10.6179 9.57793 12 9.57793C12.844 9.57793 13.5734 9.80318 13.9491 10.1789L15.1509 8.97698C14.1947 8.02073 12.7659 7.87793 12 7.87793C9.65655 7.87793 7.75 9.78448 7.75 12.1279C7.75 14.4714 9.65655 16.3779 12 16.3779Z" fill="#121212"/>
</svg>
