<svg width="24" height="24" viewBox="0 0 24 24" fill="none" xmlns="http://www.w3.org/2000/svg">
<path d="M17.3796 3.02539C17.4955 2.99538 17.6168 2.99156 17.7341 3.01562C17.8515 3.03971 17.9617 3.09078 18.0564 3.16406C18.1511 3.23732 18.2282 3.33103 18.281 3.43848C18.3338 3.54594 18.361 3.66447 18.3611 3.78418V5.84375C18.3618 6.09867 18.277 6.87303 18.1208 7.0752C17.9645 7.27672 17.745 7.42067 17.4978 7.4834L13.7 8.55859C13.4208 8.6313 13.2442 8.75926 13.2283 9.06445L13.0281 17.3428C13.1739 18.8007 11.9769 20.2969 10.1599 20.8174C8.16819 21.389 6.18531 20.571 5.73218 18.9902C5.27922 17.4095 6.52694 15.6654 8.51929 15.0938C9.60771 14.782 10.6926 14.8842 11.5271 15.2988L11.6853 10.0107L11.7781 5.47363C11.7776 5.21954 11.862 4.97253 12.0173 4.77148C12.1729 4.57035 12.3912 4.42675 12.6375 4.36328L17.3796 3.02539Z" fill="#101820"/>
</svg>
