<svg width="25" height="25" viewBox="0 0 25 25" fill="none" xmlns="http://www.w3.org/2000/svg">
<path d="M18.9861 19.1514C18.9641 19.1738 18.9439 19.1984 18.9216 19.2207C18.0668 20.0758 17.0616 20.753 15.906 21.252C14.7504 21.7508 13.5157 22 12.2019 22C11.8502 22 11.5042 21.9801 11.1638 21.9443L12.0056 20.4951C12.0701 20.4964 12.1349 20.5 12.2 20.5C14.4333 20.5 16.3248 19.7248 17.8748 18.1748C17.9932 18.0563 18.1062 17.935 18.2156 17.8125L18.9861 19.1514ZM5.13062 16.3271C5.49092 16.9891 5.95547 17.6051 6.52515 18.1748C7.68802 19.3377 9.04309 20.0641 10.5906 20.3545L9.81421 21.7031C9.36427 21.5868 8.92511 21.4367 8.49683 21.252C7.34066 20.7533 6.33441 20.0765 5.47925 19.2217C4.65437 18.3971 3.99714 17.4316 3.50366 16.3271H5.13062ZM12.2 5.5C16.0659 5.5 19.2 8.63401 19.2 12.5C19.2 16.366 16.0659 19.5 12.2 19.5C8.33396 19.5 5.19995 16.366 5.19995 12.5C5.19995 8.63401 8.33396 5.5 12.2 5.5ZM21.3572 9.94922C21.5839 10.7631 21.6999 11.6122 21.7 12.498C21.7 13.8119 21.4505 15.047 20.9519 16.2031C20.6539 16.894 20.2902 17.5299 19.865 18.1133L19.0466 16.7061C19.8142 15.4728 20.2 14.0716 20.2 12.5C20.2 11.5931 20.0698 10.7434 19.8142 9.94922H21.3572ZM10.6482 8.83105C10.4944 8.72722 10.339 8.7185 10.1833 8.80566C10.0277 8.89283 9.94995 9.02726 9.94995 9.20801V15.627C9.95001 15.8075 10.0279 15.9412 10.1833 16.0283C10.339 16.1155 10.4944 16.1077 10.6482 16.0039L15.6462 12.8037C15.7834 12.7102 15.8523 12.5811 15.8523 12.417C15.8522 12.2531 15.7832 12.1247 15.6462 12.0312L10.6482 8.83105ZM5.35132 8.29395C4.58411 9.52696 4.19995 10.9288 4.19995 12.5C4.19995 13.4073 4.33086 14.2572 4.58667 15.0518H3.04272C2.81579 14.2376 2.69997 13.3881 2.69995 12.502C2.69995 11.1881 2.94942 9.95296 3.448 8.79688C3.74593 8.10611 4.10789 7.46906 4.53296 6.88574L5.35132 8.29395ZM14.5818 3.29492C15.0332 3.41135 15.4735 3.56278 15.9031 3.74805C17.0592 4.24671 18.0655 4.92349 18.9207 5.77832C19.7458 6.6032 20.4037 7.56884 20.8972 8.67383H19.2693C18.9089 8.01155 18.4447 7.39509 17.8748 6.8252C16.7089 5.65936 15.35 4.93153 13.7976 4.64258L14.5818 3.29492ZM12.198 3C12.5493 3 12.8951 3.01904 13.2351 3.05469L12.3933 4.50391C12.3291 4.5026 12.2647 4.5 12.2 4.5C9.96662 4.5 8.07515 5.2752 6.52515 6.8252C6.40667 6.94367 6.29375 7.06503 6.18433 7.1875L5.41187 5.84766C5.43404 5.82502 5.45585 5.80173 5.47827 5.7793C6.33308 4.92419 7.33829 4.24702 8.4939 3.74805C9.6495 3.24925 10.8843 3.00003 12.198 3Z" fill="#00B0FF"/>
</svg>
