<svg width="36" height="36" viewBox="0 0 36 36" fill="none" xmlns="http://www.w3.org/2000/svg">
<rect width="36" height="36" rx="18" fill="#0D9488" fill-opacity="0.12"/>
<path d="M15.3751 9.14062C16.0651 9.14062 16.7168 9.30446 17.2935 9.59535L16.4663 10.6613C16.1287 10.527 15.7605 10.4531 15.3751 10.4531C13.7441 10.4531 12.4219 11.7753 12.4219 13.4063C12.4219 15.0169 13.7114 16.3264 15.3143 16.3588V17.6715C12.9865 17.639 11.1094 15.7418 11.1094 13.4063C11.1094 11.0504 13.0192 9.14062 15.3751 9.14062Z" fill="#0D9488"/>
<path d="M8.20997 20.2128C10.3733 19.1999 12.7752 18.6271 15.3143 18.6181V19.9306C12.9918 19.9395 10.7953 20.4594 8.8125 21.38V23.5781H11.2499V24.8906H8.15625C7.79381 24.8906 7.5 24.5968 7.5 24.2344V21.3582C7.5 20.8707 7.76845 20.4195 8.20997 20.2128Z" fill="#0D9488"/>
<path d="M20.6249 18.7397C18.2691 18.7397 16.3593 16.8299 16.3593 14.474C16.3593 12.1182 18.2691 10.2084 20.6249 10.2084C22.9808 10.2084 24.8906 12.1182 24.8906 14.474C24.8906 16.8299 22.9808 18.7397 20.6249 18.7397ZM20.6249 17.4272C22.2559 17.4272 23.578 16.105 23.578 14.474C23.578 12.8431 22.2559 11.5209 20.6249 11.5209C18.9939 11.5209 17.6718 12.8431 17.6718 14.474C17.6718 16.105 18.9939 17.4272 20.6249 17.4272Z" fill="#0D9488"/>
<path d="M28.5 22.9453C28.5 22.4578 28.2315 22.0066 27.79 21.7999C25.6095 20.7789 23.1865 20.2051 20.625 20.2051C18.0635 20.2051 15.6405 20.7789 13.4599 21.7999C13.0184 22.0066 12.75 22.4578 12.75 22.9453V26.2031C12.75 26.5656 13.0438 26.8594 13.4062 26.8594H27.8437C28.2062 26.8594 28.5 26.5656 28.5 26.2031V22.9453ZM27.1875 22.9671V25.5469H14.0625V22.9671C16.0625 22.0384 18.28 21.5176 20.625 21.5176C22.9699 21.5176 25.1874 22.0384 27.1875 22.9671Z" fill="#0D9488"/>
</svg>
