<svg width="36" height="36" viewBox="0 0 36 36" fill="none" xmlns="http://www.w3.org/2000/svg">
<rect width="36" height="36" rx="18" fill="#F97316" fill-opacity="0.12"/>
<mask id="mask0_14987_7950" style="mask-type:alpha" maskUnits="userSpaceOnUse" x="6" y="6" width="24" height="24">
<rect x="6" y="6" width="24" height="24" fill="#D9D9D9"/>
</mask>
<g mask="url(#mask0_14987_7950)">
<path d="M21.4731 22.5269L22.5269 21.4731L18.75 17.6959V13H17.25V18.3039L21.4731 22.5269ZM18.0016 27.5C16.6877 27.5 15.4527 27.2506 14.2966 26.752C13.1404 26.2533 12.1347 25.5766 11.2795 24.7217C10.4243 23.8669 9.74721 22.8616 9.24833 21.706C8.74944 20.5504 8.5 19.3156 8.5 18.0017C8.5 16.6877 8.74933 15.4527 9.248 14.2966C9.74667 13.1404 10.4234 12.1347 11.2783 11.2795C12.1331 10.4243 13.1383 9.74724 14.294 9.24836C15.4496 8.74947 16.6844 8.50003 17.9983 8.50003C19.3122 8.50003 20.5473 8.74936 21.7034 9.24803C22.8596 9.7467 23.8652 10.4234 24.7205 11.2783C25.5757 12.1331 26.2527 13.1384 26.7516 14.294C27.2505 15.4496 27.5 16.6844 27.5 17.9983C27.5 19.3123 27.2506 20.5473 26.752 21.7034C26.2533 22.8596 25.5765 23.8653 24.7217 24.7205C23.8669 25.5757 22.8616 26.2528 21.706 26.7517C20.5504 27.2505 19.3156 27.5 18.0016 27.5ZM18 26C20.2166 26 22.1041 25.2208 23.6625 23.6625C25.2208 22.1042 26 20.2167 26 18C26 15.7833 25.2208 13.8958 23.6625 12.3375C22.1041 10.7792 20.2166 10 18 10C15.7833 10 13.8958 10.7792 12.3375 12.3375C10.7791 13.8958 9.99998 15.7833 9.99998 18C9.99998 20.2167 10.7791 22.1042 12.3375 23.6625C13.8958 25.2208 15.7833 26 18 26Z" fill="#F97316"/>
</g>
</svg>
