<svg width="108" height="20" viewBox="0 0 108 20" fill="none" xmlns="http://www.w3.org/2000/svg">
<path fill-rule="evenodd" clip-rule="evenodd" d="M11.8557 8.14557L9.99996 4.19189L8.14421 8.14557L3.84351 8.80266L6.96022 11.9971L6.24028 16.4107L9.99996 14.3324L13.7597 16.4107L13.0397 11.9971L16.1564 8.80266L11.8557 8.14557ZM7.29607 7.01065L3.17376 7.64048C2.36917 7.76341 2.04063 8.74478 2.60904 9.32736L5.62496 12.4184L4.9237 16.7176C4.78931 17.5414 5.66388 18.1576 6.39444 17.7537L9.99996 15.7606L13.6055 17.7537C14.3361 18.1576 15.2106 17.5414 15.0762 16.7176L14.375 12.4184L17.3909 9.32736C17.9593 8.74478 17.6308 7.76341 16.8262 7.64048L12.7039 7.01065L10.9052 3.17862C10.5453 2.41181 9.45464 2.41181 9.09472 3.17862L7.29607 7.01065Z" fill="#BEBEBE"/>
<path fill-rule="evenodd" clip-rule="evenodd" d="M33.8557 8.14557L32 4.19189L30.1442 8.14557L25.8435 8.80266L28.9602 11.9971L28.2403 16.4107L32 14.3324L35.7597 16.4107L35.0397 11.9971L38.1564 8.80266L33.8557 8.14557ZM29.2961 7.01065L25.1738 7.64048C24.3692 7.76341 24.0406 8.74478 24.609 9.32736L27.625 12.4184L26.9237 16.7176C26.7893 17.5414 27.6639 18.1576 28.3944 17.7537L32 15.7606L35.6055 17.7537C36.3361 18.1576 37.2106 17.5414 37.0762 16.7176L36.375 12.4184L39.3909 9.32736C39.9593 8.74478 39.6308 7.76341 38.8262 7.64048L34.7039 7.01065L32.9052 3.17862C32.5453 2.41181 31.4546 2.41181 31.0947 3.17862L29.2961 7.01065Z" fill="#BEBEBE"/>
<path fill-rule="evenodd" clip-rule="evenodd" d="M55.8557 8.14557L54 4.19189L52.1442 8.14557L47.8435 8.80266L50.9602 11.9971L50.2403 16.4107L54 14.3324L57.7597 16.4107L57.0397 11.9971L60.1564 8.80266L55.8557 8.14557ZM51.2961 7.01065L47.1738 7.64048C46.3692 7.76341 46.0406 8.74478 46.609 9.32736L49.625 12.4184L48.9237 16.7176C48.7893 17.5414 49.6639 18.1576 50.3944 17.7537L54 15.7606L57.6055 17.7537C58.3361 18.1576 59.2106 17.5414 59.0762 16.7176L58.375 12.4184L61.3909 9.32736C61.9593 8.74478 61.6308 7.76341 60.8262 7.64048L56.7039 7.01065L54.9052 3.17862C54.5453 2.41181 53.4546 2.41181 53.0947 3.17862L51.2961 7.01065Z" fill="#BEBEBE"/>
<path fill-rule="evenodd" clip-rule="evenodd" d="M77.8557 8.14557L76 4.19189L74.1442 8.14557L69.8435 8.80266L72.9602 11.9971L72.2403 16.4107L76 14.3324L79.7597 16.4107L79.0397 11.9971L82.1564 8.80266L77.8557 8.14557ZM73.2961 7.01065L69.1738 7.64048C68.3692 7.76341 68.0406 8.74478 68.609 9.32736L71.625 12.4184L70.9237 16.7176C70.7893 17.5414 71.6639 18.1576 72.3944 17.7537L76 15.7606L79.6055 17.7537C80.3361 18.1576 81.2106 17.5414 81.0762 16.7176L80.375 12.4184L83.3909 9.32736C83.9593 8.74478 83.6308 7.76341 82.8262 7.64048L78.7039 7.01065L76.9052 3.17862C76.5453 2.41181 75.4546 2.41181 75.0947 3.17862L73.2961 7.01065Z" fill="#BEBEBE"/>
<path fill-rule="evenodd" clip-rule="evenodd" d="M99.8557 8.14557L98 4.19189L96.1442 8.14557L91.8435 8.80266L94.9602 11.9971L94.2403 16.4107L98 14.3324L101.76 16.4107L101.04 11.9971L104.156 8.80266L99.8557 8.14557ZM95.2961 7.01065L91.1738 7.64048C90.3692 7.76341 90.0406 8.74478 90.609 9.32736L93.625 12.4184L92.9237 16.7176C92.7893 17.5414 93.6639 18.1576 94.3944 17.7537L98 15.7606L101.605 17.7537C102.336 18.1576 103.211 17.5414 103.076 16.7176L102.375 12.4184L105.391 9.32736C105.959 8.74478 105.631 7.76341 104.826 7.64048L100.704 7.01065L98.9052 3.17862C98.5453 2.41181 97.4546 2.41181 97.0947 3.17862L95.2961 7.01065Z" fill="#BEBEBE"/>
</svg>
