<svg width="24" height="24" viewBox="0 0 24 24" fill="none" xmlns="http://www.w3.org/2000/svg">
<path d="M19.2217 11.5894C19.3115 13.2493 18.8546 14.893 17.9209 16.2684C16.9873 17.6439 15.6284 18.6753 14.0525 19.2045C12.4766 19.7338 10.7706 19.7318 9.19595 19.1987C7.62132 18.6657 6.26489 17.6311 5.33451 16.2534C4.40413 14.8757 3.95113 13.231 4.04492 11.5712C4.13871 9.91147 4.77411 8.32824 5.85377 7.06415C6.93343 5.80005 8.39778 4.92482 10.0224 4.57257C11.6471 4.22032 13.3424 4.41048 14.8487 5.11392" stroke="#CBDAEC" stroke-width="0.8" stroke-linecap="round"/>
<path d="M16.9007 13.8997C16.5278 14.9339 15.8587 15.8355 14.9768 16.492C14.095 17.1484 13.0394 17.5308 11.9417 17.5915C10.844 17.6521 9.75269 17.3883 8.8039 16.8329C7.8551 16.2776 7.09077 15.4552 6.60618 14.4684C6.12159 13.4816 5.93818 12.3739 6.07883 11.2836C6.21947 10.1932 6.67795 9.1684 7.39709 8.33685C8.11623 7.5053 9.06423 6.90382 10.1229 6.6074C11.1816 6.31097 12.3041 6.33272 13.3505 6.66993" stroke="#CBDAEC" stroke-width="0.8" stroke-linecap="round"/>
<path fill-rule="evenodd" clip-rule="evenodd" d="M20.0945 5.1318C20.4717 5.54131 20.4556 6.18865 20.0585 6.57768L13.2155 14.3504C12.8256 14.7324 12.2115 14.7243 11.8312 14.3321L8.65766 11.0594C8.27036 10.66 8.27036 10.0124 8.65766 9.61303C9.04496 9.21363 9.67289 9.21363 10.0602 9.61303L12.5502 12.1809L18.6924 5.09473C19.0895 4.7057 19.7172 4.7223 20.0945 5.1318Z" fill="url(#paint0_linear_19276_37852)"/>
<defs>
<linearGradient id="paint0_linear_19276_37852" x1="14.3672" y1="4.81348" x2="14.3672" y2="14.6317" gradientUnits="userSpaceOnUse">
<stop stop-color="#40E471"/>
<stop offset="1" stop-color="#009966"/>
</linearGradient>
</defs>
</svg>
