<svg width="24" height="25" viewBox="0 0 24 25" fill="none" xmlns="http://www.w3.org/2000/svg">
<path d="M5 6.83002C5 6.43219 5.15804 6.05066 5.43934 5.76936C5.72064 5.48805 6.10218 5.33002 6.5 5.33002H9.5C9.89782 5.33002 10.2794 5.48805 10.5607 5.76936C10.842 6.05066 11 6.43219 11 6.83002V9.83002C11 10.2278 10.842 10.6094 10.5607 10.8907C10.2794 11.172 9.89782 11.33 9.5 11.33H6.5C6.10218 11.33 5.72064 11.172 5.43934 10.8907C5.15804 10.6094 5 10.2278 5 9.83002V6.83002ZM6.5 6.33002C6.36739 6.33002 6.24021 6.3827 6.14645 6.47646C6.05268 6.57023 6 6.69741 6 6.83002V9.83002C6 9.96263 6.05268 10.0898 6.14645 10.1836C6.24021 10.2773 6.36739 10.33 6.5 10.33H9.5C9.63261 10.33 9.75979 10.2773 9.85355 10.1836C9.94732 10.0898 10 9.96263 10 9.83002V6.83002C10 6.69741 9.94732 6.57023 9.85355 6.47646C9.75979 6.3827 9.63261 6.33002 9.5 6.33002H6.5ZM13 6.83002C13 6.43219 13.158 6.05066 13.4393 5.76936C13.7206 5.48805 14.1022 5.33002 14.5 5.33002H17.5C17.8978 5.33002 18.2794 5.48805 18.5607 5.76936C18.842 6.05066 19 6.43219 19 6.83002V9.83002C19 10.2278 18.842 10.6094 18.5607 10.8907C18.2794 11.172 17.8978 11.33 17.5 11.33H14.5C14.1022 11.33 13.7206 11.172 13.4393 10.8907C13.158 10.6094 13 10.2278 13 9.83002V6.83002ZM14.5 6.33002C14.3674 6.33002 14.2402 6.3827 14.1464 6.47646C14.0527 6.57023 14 6.69741 14 6.83002V9.83002C14 9.96263 14.0527 10.0898 14.1464 10.1836C14.2402 10.2773 14.3674 10.33 14.5 10.33H17.5C17.6326 10.33 17.7598 10.2773 17.8536 10.1836C17.9473 10.0898 18 9.96263 18 9.83002V6.83002C18 6.69741 17.9473 6.57023 17.8536 6.47646C17.7598 6.3827 17.6326 6.33002 17.5 6.33002H14.5ZM5 14.83C5 14.4322 5.15804 14.0507 5.43934 13.7694C5.72064 13.4881 6.10218 13.33 6.5 13.33H9.5C9.89782 13.33 10.2794 13.4881 10.5607 13.7694C10.842 14.0507 11 14.4322 11 14.83V17.83C11 18.2278 10.842 18.6094 10.5607 18.8907C10.2794 19.172 9.89782 19.33 9.5 19.33H6.5C6.10218 19.33 5.72064 19.172 5.43934 18.8907C5.15804 18.6094 5 18.2278 5 17.83V14.83ZM6.5 14.33C6.36739 14.33 6.24021 14.3827 6.14645 14.4765C6.05268 14.5702 6 14.6974 6 14.83V17.83C6 17.9626 6.05268 18.0898 6.14645 18.1836C6.24021 18.2773 6.36739 18.33 6.5 18.33H9.5C9.63261 18.33 9.75979 18.2773 9.85355 18.1836C9.94732 18.0898 10 17.9626 10 17.83V14.83C10 14.6974 9.94732 14.5702 9.85355 14.4765C9.75979 14.3827 9.63261 14.33 9.5 14.33H6.5ZM13 14.83C13 14.4322 13.158 14.0507 13.4393 13.7694C13.7206 13.4881 14.1022 13.33 14.5 13.33H17.5C17.8978 13.33 18.2794 13.4881 18.5607 13.7694C18.842 14.0507 19 14.4322 19 14.83V17.83C19 18.2278 18.842 18.6094 18.5607 18.8907C18.2794 19.172 17.8978 19.33 17.5 19.33H14.5C14.1022 19.33 13.7206 19.172 13.4393 18.8907C13.158 18.6094 13 18.2278 13 17.83V14.83ZM14.5 14.33C14.3674 14.33 14.2402 14.3827 14.1464 14.4765C14.0527 14.5702 14 14.6974 14 14.83V17.83C14 17.9626 14.0527 18.0898 14.1464 18.1836C14.2402 18.2773 14.3674 18.33 14.5 18.33H17.5C17.6326 18.33 17.7598 18.2773 17.8536 18.1836C17.9473 18.0898 18 17.9626 18 17.83V14.83C18 14.6974 17.9473 14.5702 17.8536 14.4765C17.7598 14.3827 17.6326 14.33 17.5 14.33H14.5Z" fill="#121212"/>
<path fill-rule="evenodd" clip-rule="evenodd" d="M6.50078 5.53C6.156 5.53 5.82534 5.66697 5.58154 5.91077C5.33775 6.15456 5.20078 6.48522 5.20078 6.83V9.83C5.20078 10.1748 5.33775 10.5054 5.58154 10.7492C5.82534 10.993 6.156 11.13 6.50078 11.13H9.50078C9.84556 11.13 10.1762 10.993 10.42 10.7492C10.6638 10.5054 10.8008 10.1748 10.8008 9.83V6.83C10.8008 6.48522 10.6638 6.15456 10.42 5.91077C10.1762 5.66697 9.84556 5.53 9.50078 5.53H6.50078ZM5.2987 5.62792C5.61751 5.30911 6.04991 5.13 6.50078 5.13H9.50078C9.95165 5.13 10.3841 5.30911 10.7029 5.62792C11.0217 5.94674 11.2008 6.37914 11.2008 6.83V9.83C11.2008 10.2809 11.0217 10.7133 10.7029 11.0321C10.3841 11.3509 9.95165 11.53 9.50078 11.53H6.50078C6.04991 11.53 5.61751 11.3509 5.2987 11.0321C4.97989 10.7133 4.80078 10.2809 4.80078 9.83V6.83C4.80078 6.37914 4.97989 5.94674 5.2987 5.62792ZM14.5008 5.53C14.156 5.53 13.8253 5.66697 13.5815 5.91077C13.3377 6.15456 13.2008 6.48522 13.2008 6.83V9.83C13.2008 10.1748 13.3377 10.5054 13.5815 10.7492C13.8253 10.993 14.156 11.13 14.5008 11.13H17.5008C17.8456 11.13 18.1762 10.993 18.42 10.7492C18.6638 10.5054 18.8008 10.1748 18.8008 9.83V6.83C18.8008 6.48522 18.6638 6.15456 18.42 5.91077C18.1762 5.66697 17.8456 5.53 17.5008 5.53H14.5008ZM13.2987 5.62792C13.6175 5.30911 14.0499 5.13 14.5008 5.13H17.5008C17.9516 5.13 18.3841 5.30911 18.7029 5.62792C19.0217 5.94674 19.2008 6.37914 19.2008 6.83V9.83C19.2008 10.2809 19.0217 10.7133 18.7029 11.0321C18.3841 11.3509 17.9516 11.53 17.5008 11.53H14.5008C14.0499 11.53 13.6175 11.3509 13.2987 11.0321C12.9799 10.7133 12.8008 10.2809 12.8008 9.83V6.83C12.8008 6.37914 12.9799 5.94674 13.2987 5.62792ZM6.00581 6.33503C6.13708 6.20375 6.31513 6.13 6.50078 6.13H9.50078C9.68643 6.13 9.86448 6.20375 9.99576 6.33503C10.127 6.46631 10.2008 6.64435 10.2008 6.83V9.83C10.2008 10.0157 10.127 10.1937 9.99576 10.325C9.86448 10.4563 9.68643 10.53 9.50078 10.53H6.50078C6.31513 10.53 6.13708 10.4563 6.00581 10.325C5.87453 10.1937 5.80078 10.0157 5.80078 9.83V6.83C5.80078 6.64435 5.87453 6.46631 6.00581 6.33503ZM6.50078 6.53C6.42122 6.53 6.34491 6.56161 6.28865 6.61787C6.23239 6.67413 6.20078 6.75044 6.20078 6.83V9.83C6.20078 9.90957 6.23239 9.98588 6.28865 10.0421C6.34491 10.0984 6.42122 10.13 6.50078 10.13H9.50078C9.58035 10.13 9.65665 10.0984 9.71291 10.0421C9.76917 9.98588 9.80078 9.90957 9.80078 9.83V6.83C9.80078 6.75044 9.76917 6.67413 9.71291 6.61787C9.65665 6.56161 9.58035 6.53 9.50078 6.53H6.50078ZM14.0058 6.33503C14.1371 6.20375 14.3151 6.13 14.5008 6.13H17.5008C17.6864 6.13 17.8645 6.20375 17.9958 6.33503C18.127 6.46631 18.2008 6.64435 18.2008 6.83V9.83C18.2008 10.0157 18.127 10.1937 17.9958 10.325C17.8645 10.4563 17.6864 10.53 17.5008 10.53H14.5008C14.3151 10.53 14.1371 10.4563 14.0058 10.325C13.8745 10.1937 13.8008 10.0157 13.8008 9.83V6.83C13.8008 6.64435 13.8745 6.46631 14.0058 6.33503ZM14.5008 6.53C14.4212 6.53 14.3449 6.56161 14.2886 6.61787C14.2324 6.67413 14.2008 6.75044 14.2008 6.83V9.83C14.2008 9.90957 14.2324 9.98588 14.2886 10.0421C14.3449 10.0984 14.4212 10.13 14.5008 10.13H17.5008C17.5803 10.13 17.6567 10.0984 17.7129 10.0421C17.7692 9.98588 17.8008 9.90957 17.8008 9.83V6.83C17.8008 6.75044 17.7692 6.67413 17.7129 6.61787C17.6567 6.56161 17.5803 6.53 17.5008 6.53H14.5008ZM6.50078 13.53C6.156 13.53 5.82534 13.667 5.58154 13.9108C5.33775 14.1546 5.20078 14.4852 5.20078 14.83V17.83C5.20078 18.1748 5.33775 18.5054 5.58154 18.7492C5.82534 18.993 6.156 19.13 6.50078 19.13H9.50078C9.84556 19.13 10.1762 18.993 10.42 18.7492C10.6638 18.5054 10.8008 18.1748 10.8008 17.83V14.83C10.8008 14.4852 10.6638 14.1546 10.42 13.9108C10.1762 13.667 9.84556 13.53 9.50078 13.53H6.50078ZM5.2987 13.6279C5.61751 13.3091 6.04991 13.13 6.50078 13.13H9.50078C9.95165 13.13 10.3841 13.3091 10.7029 13.6279C11.0217 13.9467 11.2008 14.3791 11.2008 14.83V17.83C11.2008 18.2809 11.0217 18.7133 10.7029 19.0321C10.3841 19.3509 9.95165 19.53 9.50078 19.53H6.50078C6.04991 19.53 5.61751 19.3509 5.2987 19.0321C4.97989 18.7133 4.80078 18.2809 4.80078 17.83V14.83C4.80078 14.3791 4.97989 13.9467 5.2987 13.6279ZM14.5008 13.53C14.156 13.53 13.8253 13.667 13.5815 13.9108C13.3377 14.1546 13.2008 14.4852 13.2008 14.83V17.83C13.2008 18.1748 13.3377 18.5054 13.5815 18.7492C13.8253 18.993 14.156 19.13 14.5008 19.13H17.5008C17.8456 19.13 18.1762 18.993 18.42 18.7492C18.6638 18.5054 18.8008 18.1748 18.8008 17.83V14.83C18.8008 14.4852 18.6638 14.1546 18.42 13.9108C18.1762 13.667 17.8456 13.53 17.5008 13.53H14.5008ZM13.2987 13.6279C13.6175 13.3091 14.0499 13.13 14.5008 13.13H17.5008C17.9516 13.13 18.3841 13.3091 18.7029 13.6279C19.0217 13.9467 19.2008 14.3791 19.2008 14.83V17.83C19.2008 18.2809 19.0217 18.7133 18.7029 19.0321C18.3841 19.3509 17.9516 19.53 17.5008 19.53H14.5008C14.0499 19.53 13.6175 19.3509 13.2987 19.0321C12.9799 18.7133 12.8008 18.2809 12.8008 17.83V14.83C12.8008 14.3791 12.9799 13.9467 13.2987 13.6279ZM6.00581 14.335C6.13708 14.2038 6.31513 14.13 6.50078 14.13H9.50078C9.68643 14.13 9.86448 14.2038 9.99576 14.335C10.127 14.4663 10.2008 14.6444 10.2008 14.83V17.83C10.2008 18.0157 10.127 18.1937 9.99576 18.325C9.86448 18.4563 9.68643 18.53 9.50078 18.53H6.50078C6.31513 18.53 6.13708 18.4563 6.00581 18.325C5.87453 18.1937 5.80078 18.0157 5.80078 17.83V14.83C5.80078 14.6444 5.87453 14.4663 6.00581 14.335ZM6.50078 14.53C6.42122 14.53 6.34491 14.5616 6.28865 14.6179C6.23239 14.6741 6.20078 14.7504 6.20078 14.83V17.83C6.20078 17.9096 6.23239 17.9859 6.28865 18.0421C6.34491 18.0984 6.42122 18.13 6.50078 18.13H9.50078C9.58035 18.13 9.65665 18.0984 9.71291 18.0421C9.76917 17.9859 9.80078 17.9096 9.80078 17.83V14.83C9.80078 14.7504 9.76917 14.6741 9.71291 14.6179C9.65665 14.5616 9.58035 14.53 9.50078 14.53H6.50078ZM14.0058 14.335C14.1371 14.2038 14.3151 14.13 14.5008 14.13H17.5008C17.6864 14.13 17.8645 14.2038 17.9958 14.335C18.127 14.4663 18.2008 14.6444 18.2008 14.83V17.83C18.2008 18.0157 18.127 18.1937 17.9958 18.325C17.8645 18.4563 17.6864 18.53 17.5008 18.53H14.5008C14.3151 18.53 14.1371 18.4563 14.0058 18.325C13.8745 18.1937 13.8008 18.0157 13.8008 17.83V14.83C13.8008 14.6444 13.8745 14.4663 14.0058 14.335ZM14.5008 14.53C14.4212 14.53 14.3449 14.5616 14.2886 14.6179C14.2324 14.6741 14.2008 14.7504 14.2008 14.83V17.83C14.2008 17.9096 14.2324 17.9859 14.2886 18.0421C14.3449 18.0984 14.4212 18.13 14.5008 18.13H17.5008C17.5803 18.13 17.6567 18.0984 17.7129 18.0421C17.7692 17.9859 17.8008 17.9096 17.8008 17.83V14.83C17.8008 14.7504 17.7692 14.6741 17.7129 14.6179C17.6567 14.5616 17.5803 14.53 17.5008 14.53H14.5008Z" fill="#121212"/>
</svg>
