<svg width="16" height="16" viewBox="0 0 16 16" fill="none" xmlns="http://www.w3.org/2000/svg">
<path d="M7.27581 2.54289C7.56374 1.92945 8.43626 1.92945 8.72419 2.54289L10.1631 5.60851L13.461 6.11238C14.1046 6.21073 14.3675 6.99582 13.9127 7.46188L11.5 9.93475L12.061 13.374C12.1685 14.0331 11.4689 14.5261 10.8844 14.203L8 12.6085L5.11558 14.203C4.53113 14.5261 3.83148 14.0331 3.93899 13.374L4.5 9.93475L2.08726 7.46188C1.63253 6.99582 1.89536 6.21073 2.53904 6.11238L5.83688 5.60851L7.27581 2.54289Z" fill="#121212"/>
<mask id="mask0_17091_12846" style="mask-type:alpha" maskUnits="userSpaceOnUse" x="1" y="2" width="14" height="13">
<path d="M7.27581 2.54289C7.56374 1.92945 8.43626 1.92945 8.72419 2.54289L10.1631 5.60851L13.461 6.11238C14.1046 6.21073 14.3675 6.99582 13.9127 7.46188L11.5 9.93475L12.061 13.374C12.1685 14.0331 11.4689 14.5261 10.8844 14.203L8 12.6085L5.11558 14.203C4.53113 14.5261 3.83148 14.0331 3.93899 13.374L4.5 9.93475L2.08726 7.46188C1.63253 6.99582 1.89536 6.21073 2.53904 6.11238L5.83688 5.60851L7.27581 2.54289Z" fill="black" fill-opacity="0.9"/>
</mask>
<g mask="url(#mask0_17091_12846)">
<rect width="8" height="16" fill="#121212"/>
</g>
</svg>
