<svg width="12" height="12" viewBox="0 0 12 12" fill="none" xmlns="http://www.w3.org/2000/svg">
<path fill-rule="evenodd" clip-rule="evenodd" d="M8.55067 6.31781C10.0875 6.31781 11.3334 5.07196 11.3334 3.53512C11.3334 1.99829 10.0875 0.752441 8.55067 0.752441C7.01384 0.752441 5.76799 1.99829 5.76799 3.53512C5.76799 5.07196 7.01384 6.31781 8.55067 6.31781ZM1.36187 9.35232L5.26506 4.85386C5.60722 5.69732 6.33289 6.37952 7.16162 6.76304L2.66317 10.6368C2.48965 10.8076 2.25596 10.9033 2.01252 10.9033C1.84981 10.9033 1.69147 10.8605 1.55253 10.7812L1.1066 11.1801C0.997978 11.2773 0.831146 11.268 0.73397 11.1594C0.636794 11.0508 0.646072 10.8839 0.754694 10.7868L1.1879 10.3992C1.1786 10.3808 1.16993 10.362 1.1619 10.343C1.11549 10.2327 1.09158 10.1142 1.09158 9.99455C1.09158 9.87489 1.11549 9.75644 1.1619 9.64615C1.20832 9.53587 1.2763 9.43596 1.36187 9.35232Z" fill="#686A6F"/>
</svg>
