<svg width="48" height="48" viewBox="0 0 48 48" fill="none" xmlns="http://www.w3.org/2000/svg">
<circle cx="24" cy="24" r="24" fill="white" fill-opacity="0.3"/>
<circle cx="24" cy="24" r="23.5" stroke="black" stroke-opacity="0.1"/>
<path fill-rule="evenodd" clip-rule="evenodd" d="M26.4999 22.4093V19.8898L31.093 24.4828L26.4999 28.7862V26.1245L25.0123 26.0198C24.7165 25.999 24.4259 25.9897 24.1412 25.9897C21.2818 25.9897 19.1045 27.0524 17.6432 28.1227C17.3224 28.3577 17.035 28.5937 16.7809 28.8201C17.2321 26.5157 18.4706 25.1216 19.8432 24.2223C21.6695 23.026 23.8387 22.6513 25.0448 22.5416L26.4999 22.4093ZM15 30.7995C15 30.9881 15.0593 31.1719 15.1694 31.325C15.2795 31.4781 15.435 31.5927 15.6138 31.6527C15.792 31.7128 15.9847 31.7154 16.1645 31.66C16.3442 31.6046 16.502 31.494 16.6155 31.344C16.6189 31.3396 16.6246 31.3319 16.6326 31.3212C16.8689 31.0035 19.1088 27.9922 23.2999 27.6261C23.3423 27.6224 23.385 27.619 23.4278 27.6158C23.6597 27.5987 23.8975 27.5897 24.1412 27.5897C24.3914 27.5897 24.6443 27.5978 24.8999 27.6158V30.4022C24.8995 30.5804 24.9521 30.7546 25.0509 30.9029C25.1497 31.0511 25.2903 31.1667 25.4549 31.2349C25.6196 31.303 25.8007 31.3208 25.9754 31.2858C26.1501 31.2508 26.3105 31.1648 26.4362 31.0385L32.7361 25.1358C32.8198 25.0523 32.8861 24.9531 32.9314 24.844C32.9767 24.7348 33 24.6177 33 24.4995C33 24.3813 32.9767 24.2643 32.9314 24.1551C32.8861 24.0459 32.8198 23.9468 32.7361 23.8632L26.4362 17.5633C26.3103 17.4375 26.15 17.3518 25.9754 17.3171C25.8009 17.2824 25.6199 17.3002 25.4555 17.3683C25.2911 17.4364 25.1505 17.5517 25.0516 17.6997C24.9527 17.8477 24.8999 18.0216 24.8999 18.1996V20.9482C22.2773 21.1867 15 22.588 15 30.7995Z" fill="#757575"/>
</svg>
