<svg width="24" height="24" viewBox="0 0 24 24" fill="none" xmlns="http://www.w3.org/2000/svg">
<path d="M11.2842 4.37109C11.6234 3.88676 12.3407 3.88454 12.6797 4.36914L16.3018 9.53223C16.575 9.92149 17.1126 10.0125 17.498 9.7334L20.4004 7.62988C21.0152 7.18431 21.8617 7.70838 21.7373 8.45508L20.2178 19.2754C20.1519 19.689 19.7959 19.992 19.3789 19.9922C19.3789 19.9922 14.9302 19.6484 12.0801 19.6484C9.22997 19.6485 4.78223 19.9922 4.78223 19.9922C4.37242 19.9921 4.01851 19.6964 3.94531 19.29L2.26465 8.4873C2.12803 7.73329 2.97458 7.19416 3.59668 7.63965L6.51465 9.7334C6.90003 10.0097 7.43627 9.91635 7.70703 9.52734L11.2842 4.37109ZM12 14.25C11.1181 14.25 10.2697 14.3289 9.64648 14.4072C9.33354 14.4466 9.07391 14.4868 8.8916 14.5166C8.80038 14.5315 8.72782 14.5438 8.67773 14.5527L8.62012 14.5635L8.60352 14.5664L8.59863 14.5674H8.59668C8.15626 14.6522 7.8676 15.0781 7.95215 15.5186C8.03691 15.9592 8.46273 16.2478 8.90332 16.1631H8.90527L8.91699 16.1611L8.96387 16.1523C9.00649 16.1447 9.07073 16.1336 9.15332 16.1201C9.31887 16.0931 9.55837 16.056 9.84863 16.0195C10.4319 15.9462 11.2085 15.875 12 15.875C12.7915 15.875 13.5681 15.9462 14.1514 16.0195C14.4417 16.056 14.6811 16.0931 14.8467 16.1201C14.9293 16.1336 14.9935 16.1447 15.0361 16.1523L15.083 16.1611L15.0947 16.1631H15.0967C15.5372 16.2476 15.9631 15.9591 16.0479 15.5186C16.1324 15.078 15.8439 14.6521 15.4033 14.5674H15.4014L15.3965 14.5664L15.3799 14.5635L15.3223 14.5527C15.2722 14.5438 15.1996 14.5315 15.1084 14.5166C14.9261 14.4868 14.6664 14.4466 14.3535 14.4072C13.7303 14.3289 12.8818 14.25 12 14.25Z" fill="white"/>
</svg>
