<svg width="20" height="20" viewBox="0 0 20 20" fill="none" xmlns="http://www.w3.org/2000/svg">
<path d="M15.4427 7.50125C16.4617 8.71768 17.0438 10.2404 17.0961 11.8264C17.1485 13.4124 16.668 14.9702 15.7314 16.2511C14.7948 17.5321 13.4561 18.4624 11.9289 18.8935C10.4018 19.3246 8.77422 19.2317 7.30604 18.6296C5.83786 18.0275 4.61371 16.9509 3.82896 15.5717C3.04422 14.1925 2.74413 12.5901 2.9766 11.0204C3.20907 9.4507 3.96069 8.0041 5.11149 6.91152C6.26229 5.81894 7.74593 5.14338 9.3256 4.99265" stroke="#CBDAEC" stroke-width="0.8" stroke-linecap="round"/>
<path d="M14.5053 9.4142C15.0694 10.3746 15.3119 11.4902 15.1973 12.5982C15.0826 13.7062 14.617 14.7485 13.8681 15.5731C13.1193 16.3977 12.1266 16.9615 11.0348 17.1821C9.94295 17.4027 8.80921 17.2686 7.79899 16.7993C6.78876 16.3301 5.95492 15.5503 5.41915 14.5738C4.88337 13.5972 4.67369 12.475 4.82071 11.3709C4.96774 10.2668 5.46376 9.23851 6.23641 8.43618C7.00906 7.63385 8.01789 7.09944 9.1157 6.91092" stroke="#CBDAEC" stroke-width="0.8" stroke-linecap="round"/>
<path fill-rule="evenodd" clip-rule="evenodd" d="M16.3036 0.776331C16.3941 0.756229 16.488 0.757323 16.5781 0.779076C16.6683 0.800879 16.7526 0.842762 16.824 0.901989C16.8953 0.96123 16.9523 1.03627 16.9903 1.12082C17.0282 1.20556 17.0466 1.29858 17.0434 1.39139L16.9876 2.9871C16.9812 3.18501 16.8944 3.7822 16.7679 3.93411C16.6413 4.08598 16.468 4.19157 16.2748 4.23348L13.3031 4.96323C13.0877 5.0114 12.9481 5.10447 12.9247 5.33404L12.5453 11.7505C12.6189 12.8839 11.6507 14.0115 10.229 14.3656C8.67059 14.7544 7.15716 14.0665 6.84889 12.8297C6.54065 11.5928 7.55409 10.2753 9.11314 9.8864C9.96472 9.67441 10.802 9.78309 11.4372 10.1268L11.7033 6.03402L11.8982 2.52209C11.9047 2.32505 11.9767 2.13561 12.1027 1.98397C12.2286 1.83242 12.4015 1.72701 12.5939 1.68453L16.3036 0.776331Z" fill="url(#paint0_linear_20000_19572)"/>
<defs>
<linearGradient id="paint0_linear_20000_19572" x1="16.8211" y1="7.75604" x2="6.96599" y2="7.41189" gradientUnits="userSpaceOnUse">
<stop stop-color="#00B0FF"/>
<stop offset="1" stop-color="#0091EA"/>
</linearGradient>
</defs>
</svg>
