<svg width="24" height="24" viewBox="0 0 24 24" fill="none" xmlns="http://www.w3.org/2000/svg">
<path d="M3 19.5C3 20.3284 3.67157 21 4.5 21L19.5 21C20.3284 21 21 20.3284 21 19.5L21 4.5C21 3.67158 20.3284 3 19.5 3H4.5C3.67158 3 3 3.67157 3 4.5V19.5ZM10.5 14.0356L15.6319 8.90377C15.9248 8.61088 16.3997 8.61088 16.6926 8.90378C16.9855 9.19667 16.9855 9.67155 16.6926 9.96444L10.8535 15.8033C10.6583 15.9986 10.3417 15.9986 10.1464 15.8034L7.3005 12.9577C7.00759 12.6648 7.00757 12.1899 7.30045 11.897C7.59333 11.6041 8.0682 11.6041 8.36111 11.897L10.5 14.0356Z" fill="#00B0FF"/>
</svg>
