<svg width="16" height="16" viewBox="0 0 16 16" fill="none" xmlns="http://www.w3.org/2000/svg">
<path fill-rule="evenodd" clip-rule="evenodd" d="M11.6651 6.98891L13.6005 5.58692C14.0104 5.28988 14.5748 5.63915 14.4918 6.13695L13.4785 12.3504C13.4346 12.6263 13.1972 12.8286 12.9191 12.8286C12.9191 12.8286 9.95371 12.5989 8.05365 12.5989C6.15359 12.5989 3.18824 12.8286 3.18824 12.8286C2.915 12.8286 2.67917 12.6311 2.63038 12.3602L1.50978 6.15817C1.4187 5.65547 1.98307 5.29641 2.3978 5.59345L4.34299 6.98891C4.59996 7.17334 4.95777 7.11132 5.13831 6.85182L7.52263 3.41457C7.7487 3.09141 8.22686 3.08978 8.45293 3.41294L10.8682 6.85508C11.0503 7.11459 11.4081 7.17498 11.6651 6.98891ZM5.93714 10.9005L5.93567 10.9008C5.64193 10.9573 5.35802 10.765 5.30151 10.4712C5.24499 10.1775 5.43758 9.89344 5.73134 9.83693C5.73134 9.83693 5.73109 9.83698 5.83341 10.3688L5.73134 9.83693L5.73268 9.83667L5.7358 9.83608L5.74655 9.83407L5.78541 9.82699C5.8188 9.82102 5.86687 9.81267 5.92768 9.80272C6.04923 9.78286 6.22214 9.75658 6.43082 9.73036C6.84635 9.67813 7.41205 9.62504 8.00009 9.62504C8.58813 9.62504 9.15383 9.67813 9.56937 9.73036C9.77804 9.75658 9.95095 9.78286 10.0725 9.80272C10.1333 9.81267 10.1814 9.82102 10.2148 9.82699L10.2536 9.83407L10.2644 9.83608L10.2675 9.83667L10.2691 9.83698C10.5629 9.89349 10.7552 10.1775 10.6987 10.4712C10.6422 10.7649 10.3581 10.9572 10.0644 10.9008L10.063 10.9005L10.0557 10.8992L10.0241 10.8934C9.99563 10.8883 9.95288 10.8809 9.89773 10.8719C9.78736 10.8538 9.62781 10.8296 9.43428 10.8052C9.04541 10.7564 8.52778 10.7084 8.00009 10.7084C7.4724 10.7084 6.95477 10.7564 6.5659 10.8052C6.37237 10.8296 6.21282 10.8538 6.10245 10.8719C6.0473 10.8809 6.00455 10.8883 5.97611 10.8934L5.94445 10.8992L5.93714 10.9005Z" fill="#121212"/>
</svg>
