<svg width="36" height="36" viewBox="0 0 36 36" fill="none" xmlns="http://www.w3.org/2000/svg">
<rect width="36" height="36" rx="18" fill="#FF3B30" fill-opacity="0.12"/>
<path d="M18 14.7848L19.5958 13.322C21.8557 11.2504 25.5 12.8536 25.5 15.9192C25.5 16.8537 25.1288 17.7499 24.468 18.4106L18 24.8787L11.532 18.4106C10.8712 17.7499 10.5 16.8537 10.5 15.9192C10.5 12.8536 14.1443 11.2504 16.4042 13.322L18 14.7848ZM17.4178 12.2163C14.1958 9.26278 9 11.5484 9 15.9192C9 17.2515 9.52925 18.5292 10.4713 19.4713L17.7814 26.7814C17.9021 26.9021 18.0979 26.9021 18.2186 26.7814L25.5287 19.4713C26.4708 18.5292 27 17.2515 27 15.9192C27 11.5484 21.8042 9.26278 18.5822 12.2163L18 12.75L17.4178 12.2163Z" fill="#FF3B30"/>
</svg>
