<svg width="14" height="12" viewBox="0 0 14 12" fill="none" xmlns="http://www.w3.org/2000/svg">
<path d="M8.04377 10.4643V2.15043C8.25898 1.97528 8.49501 1.82724 8.74656 1.7097L8.74658 1.70972L8.75157 1.70733C9.63724 1.2835 10.9356 1.05212 12.7793 1.04394V1.04398L12.7858 1.04388C12.8406 1.04304 12.8942 1.05884 12.9398 1.08918C12.9788 1.11563 13.0108 1.15125 13.0329 1.19291C13.0551 1.2348 13.0667 1.28151 13.0666 1.32893V1.33026V9.3296C13.0666 9.40619 13.0362 9.47966 12.982 9.53382C12.9278 9.58797 12.8544 9.61839 12.7778 9.61841L8.04377 10.4643ZM8.04377 10.4643C8.97553 9.94339 10.3903 9.61821 12.7778 9.61841L8.04377 10.4643ZM7.55318 11.4419V11.4419ZM7.55318 11.4419L7.62931 11.5186L7.55318 11.4419ZM5.24764 1.70756L5.24763 1.70758L5.25179 1.70953C5.50359 1.82739 5.73976 1.97589 5.95496 2.15161V10.4892C5.42022 10.1881 4.82386 9.99236 4.21051 9.86403C3.25932 9.66499 2.22168 9.61897 1.22207 9.61897C1.07944 9.61897 0.933253 9.51594 0.933253 9.27654V1.32999H0.933254L0.933252 1.3289C0.933166 1.28157 0.944711 1.23495 0.966869 1.19314C0.988906 1.15155 1.02077 1.11599 1.05968 1.08953C1.10529 1.05906 1.15907 1.04315 1.21392 1.04389L1.21392 1.04392L1.21941 1.04394C3.06267 1.05212 4.3615 1.28448 5.24764 1.70756ZM6.4408 11.4416L6.4861 11.5464L6.4408 11.4416Z" stroke="#686A6F" stroke-width="1.2"/>
</svg>
