<svg width="72" height="72" viewBox="0 0 72 72" fill="none" xmlns="http://www.w3.org/2000/svg">
<circle cx="36" cy="36" r="36" fill="url(#paint0_linear_14316_11516)"/>
<path d="M38.696 23.5471C38.7288 22.0387 37.515 20.7982 36.0063 20.7982C34.4983 20.7982 33.2848 22.0376 33.3166 23.5453L33.6649 40.0508C33.6917 41.3217 34.7297 42.338 36.0009 42.338C37.2714 42.338 38.3091 41.3226 38.3368 40.0524L38.696 23.5471ZM36.0001 51.2016C37.6762 51.2016 39.1109 49.8096 39.1251 48.0766C39.1109 46.3721 37.6762 44.98 36.0001 44.98C34.2672 44.98 32.8609 46.3721 32.8751 48.0766C32.8609 49.8096 34.2672 51.2016 36.0001 51.2016Z" fill="white"/>
<defs>
<linearGradient id="paint0_linear_14316_11516" x1="36" y1="0" x2="36" y2="72" gradientUnits="userSpaceOnUse">
<stop stop-color="#939597"/>
<stop offset="1" stop-color="#C9D0D6"/>
</linearGradient>
</defs>
</svg>
