<svg width="24" height="24" viewBox="0 0 24 24" fill="none" xmlns="http://www.w3.org/2000/svg">
<path fill-rule="evenodd" clip-rule="evenodd" d="M14.227 9.77449L12.0001 5.03008L9.77315 9.77449L4.61231 10.563L8.35237 14.3963L7.48843 19.6926L12.0001 17.1987L16.5117 19.6926L15.6477 14.3963L19.3878 10.563L14.227 9.77449ZM8.75538 8.41258L3.80862 9.16838C2.8431 9.3159 2.44885 10.4935 3.13095 11.1926L6.75006 14.9019L5.90854 20.0609C5.74727 21.0495 6.79675 21.7889 7.67343 21.3043L12.0001 18.9126L16.3267 21.3043C17.2034 21.7889 18.2528 21.0495 18.0916 20.0609L17.2501 14.9019L20.8692 11.1926C21.5513 10.4935 21.157 9.3159 20.1915 9.16838L15.2447 8.41258L13.0863 3.81415C12.6544 2.89398 11.3457 2.89398 10.9138 3.81415L8.75538 8.41258Z" fill="#121212"/>
</svg>
