<svg width="20" height="20" viewBox="0 0 20 20" fill="none" xmlns="http://www.w3.org/2000/svg">
<path fill-rule="evenodd" clip-rule="evenodd" d="M11.8557 8.14557L9.99996 4.19189L8.14421 8.14557L3.84351 8.80266L6.96022 11.9971L6.24028 16.4107L9.99996 14.3324L13.7597 16.4107L13.0397 11.9971L16.1564 8.80266L11.8557 8.14557ZM7.29607 7.01065L3.17376 7.64048C2.36917 7.76341 2.04063 8.74478 2.60904 9.32736L5.62496 12.4184L4.9237 16.7176C4.78931 17.5414 5.66388 18.1576 6.39444 17.7537L9.99996 15.7606L13.6055 17.7537C14.3361 18.1576 15.2106 17.5414 15.0762 16.7176L14.375 12.4184L17.3909 9.32736C17.9593 8.74478 17.6308 7.76341 16.8262 7.64048L12.7039 7.01065L10.9052 3.17862C10.5453 2.41181 9.45464 2.41181 9.09472 3.17862L7.29607 7.01065Z" fill="#BEBEBE"/>
</svg>
