<svg width="32" height="32" viewBox="0 0 32 32" fill="none" xmlns="http://www.w3.org/2000/svg">
<mask id="mask0_14316_11581" style="mask-type:alpha" maskUnits="userSpaceOnUse" x="0" y="0" width="32" height="32">
<path d="M0 14.375C0 4.47744 4.58203 0 14.375 0H17.625C27.574 0 32 4.51596 32 14.375V17.625C32 27.0458 27.1504 32 17.625 32H14.375C4.69757 32 0 27.4694 0 17.625V14.375Z" fill="#11A4D0"/>
</mask>
<g mask="url(#mask0_14316_11581)">
<path d="M32 0H0V32H32V0Z" fill="#00B0FF"/>
<path opacity="0.3" d="M16.0003 28.512C22.9105 28.512 28.5123 22.9102 28.5123 16C28.5123 9.08982 22.9105 3.48801 16.0003 3.48801C9.09009 3.48801 3.48828 9.08982 3.48828 16C3.48828 22.9102 9.09009 28.512 16.0003 28.512Z" fill="#00CCFF"/>
<path opacity="0.5" d="M15.9998 24.992C20.966 24.992 24.9918 20.9661 24.9918 16C24.9918 11.0339 20.966 7.008 15.9998 7.008C11.0337 7.008 7.00781 11.0339 7.00781 16C7.00781 20.9661 11.0337 24.992 15.9998 24.992Z" fill="#00CCFF"/>
<path d="M22.1767 4.80001C22.0167 4.28801 21.4407 4.06401 20.9927 4.35201C20.3527 4.73601 19.3927 5.47201 18.2087 6.65601L17.6647 6.30401C17.8247 5.95201 17.6967 5.50401 17.3447 5.31201C16.9607 5.05601 16.4487 5.18401 16.2247 5.56801C15.9687 5.95201 16.0967 6.46401 16.4807 6.68801C16.8327 6.91201 17.2487 6.84801 17.5367 6.52801L18.0167 6.84801C17.5367 7.32801 17.0247 7.90401 16.4807 8.57601L16.0327 8.28801C16.1927 7.93601 16.0647 7.48801 15.7127 7.29601C15.3287 7.04001 14.8167 7.16801 14.5927 7.55201C14.3367 7.93601 14.4647 8.44801 14.8487 8.67201C15.2007 8.89601 15.6167 8.83201 15.9047 8.51201L16.3207 8.76801C15.8727 9.31201 15.4247 9.92001 14.9447 10.592L14.3687 10.24C14.5287 9.88801 14.4007 9.44001 14.0487 9.24801C13.6647 8.99201 13.1527 9.12001 12.9287 9.50401C12.6727 9.88801 12.8007 10.4 13.1847 10.624C13.5367 10.848 13.9527 10.784 14.2407 10.464L14.7847 10.816C14.3687 11.392 13.9527 12.032 13.5367 12.736L12.9607 12.352C13.1207 12 12.9927 11.552 12.6407 11.36C12.2567 11.104 11.7447 11.232 11.5207 11.616C11.2647 12 11.3927 12.512 11.7767 12.736C12.1287 12.96 12.5447 12.896 12.8327 12.576L13.4087 12.96C13.0247 13.568 12.6407 14.24 12.2567 14.944L11.8087 14.656C11.9687 14.304 11.8407 13.856 11.4887 13.664C11.1047 13.408 10.5927 13.536 10.3687 13.92C10.1127 14.304 10.2407 14.816 10.6247 15.04C10.9767 15.264 11.3927 15.2 11.6807 14.88L12.1607 15.168C11.8087 15.808 11.4567 16.48 11.0727 17.216L10.5927 16.928C10.7527 16.576 10.6247 16.128 10.2727 15.936C9.88872 15.68 9.37672 15.808 9.15272 16.192C8.89672 16.576 9.02472 17.088 9.40872 17.312C9.76072 17.536 10.1767 17.472 10.4647 17.152L10.9767 17.472C10.8487 17.728 10.7207 17.952 10.5927 18.208C10.4647 18.464 10.4007 18.752 10.3687 19.04C10.3367 19.488 10.4327 19.936 10.6567 20.32L11.2327 21.376C11.5207 21.92 11.6167 22.528 11.4887 23.136L9.56872 32H10.7207L13.4407 18.784L13.6967 17.6C13.5367 17.472 13.4407 17.28 13.4727 17.056C13.5367 16.768 13.8247 16.576 14.1127 16.64C14.4007 16.704 14.5927 16.992 14.5287 17.28C14.4967 17.504 14.3047 17.664 14.1127 17.696L13.8887 18.816L11.0727 32H12.4487L15.1687 18.976L16.1607 14.24C16.0007 14.112 15.9047 13.888 15.9367 13.696C16.0007 13.408 16.2887 13.216 16.5767 13.28C16.8647 13.344 17.0567 13.632 16.9927 13.92C16.9607 14.144 16.7687 14.304 16.5767 14.336L15.5847 19.072L12.8967 32H14.2727L16.8967 19.392L18.6887 10.88C18.5287 10.752 18.4327 10.56 18.4647 10.336C18.5287 10.048 18.8167 9.85601 19.1047 9.92001C19.3927 9.98401 19.5847 10.272 19.5207 10.56C19.4887 10.784 19.2967 10.944 19.1047 10.976L17.3127 19.52L14.7207 32H16.1607L17.3767 25.12C17.4727 24.576 17.7287 24.096 18.1447 23.744L20.7367 21.504C20.7687 21.472 20.8327 21.408 20.8647 21.376C21.2807 20.96 21.4727 20.384 21.4407 19.808L20.9287 13.472C20.8647 12.544 21.1847 11.616 21.8247 10.944L22.7847 9.92001C23.2007 9.47201 23.3287 8.86401 23.1687 8.32001L22.1767 4.80001Z" fill="white"/>
</g>
</svg>
