<svg width="60" height="60" viewBox="0 0 60 60" fill="none" xmlns="http://www.w3.org/2000/svg">
<rect width="60" height="60" rx="30" fill="#BEBEBE"/>
<path d="M38.0684 16.5371C38.2423 16.492 38.4246 16.4873 38.6006 16.5234C38.7765 16.5595 38.9419 16.6353 39.084 16.7451C39.2261 16.8551 39.3417 16.9969 39.4209 17.1582C39.4999 17.3193 39.5409 17.4964 39.541 17.6758V20.7656C39.542 21.1483 39.4152 22.311 39.1807 22.6133C38.9461 22.9155 38.6169 23.1305 38.2461 23.2246L32.5498 24.8369C32.1274 24.9468 31.8609 25.1414 31.8408 25.6074L31.542 38.0137C31.7608 40.2005 29.9648 42.4458 27.2393 43.2266C24.2518 44.0837 21.2774 42.8564 20.5977 40.4854C19.918 38.1142 21.7897 35.4971 24.7783 34.6396C26.4109 34.1721 28.0384 34.3253 29.29 34.9473L29.5254 27.0898L29.667 20.21C29.6663 19.8287 29.7922 19.4579 30.0254 19.1562C30.2588 18.8545 30.5867 18.6391 30.9561 18.5439L38.0684 16.5371Z" fill="white"/>
</svg>
