<svg width="46" height="21" viewBox="0 0 46 21" fill="none" xmlns="http://www.w3.org/2000/svg">
<rect y="0.5" width="46" height="20" rx="2" fill="#FFCC00"/>
<path fill-rule="evenodd" clip-rule="evenodd" d="M15.6651 9.48891L17.6005 8.08692C18.0104 7.78988 18.5748 8.13915 18.4918 8.63695L17.4785 14.8504C17.4346 15.1263 17.1972 15.3286 16.9191 15.3286C16.9191 15.3286 13.9537 15.0989 12.0536 15.0989C10.1536 15.0989 7.18824 15.3286 7.18824 15.3286C6.915 15.3286 6.67917 15.1311 6.63038 14.8602L5.50978 8.65817C5.4187 8.15547 5.98307 7.79641 6.3978 8.09345L8.34299 9.48891C8.59996 9.67334 8.95777 9.61132 9.13831 9.35182L11.5226 5.91457C11.7487 5.59141 12.2269 5.58978 12.4529 5.91294L14.8682 9.35508C15.0503 9.61459 15.4081 9.67498 15.6651 9.48891ZM9.93714 13.4005L9.93567 13.4008C9.64193 13.4573 9.35802 13.265 9.30151 12.9712C9.24499 12.6775 9.43758 12.3934 9.73134 12.3369C9.73134 12.3369 9.73109 12.337 9.83341 12.8688L9.73134 12.3369L9.73268 12.3367L9.7358 12.3361L9.74655 12.3341L9.78541 12.327C9.8188 12.321 9.86687 12.3127 9.92768 12.3027C10.0492 12.2829 10.2221 12.2566 10.4308 12.2304C10.8464 12.1781 11.4121 12.125 12.0001 12.125C12.5881 12.125 13.1538 12.1781 13.5694 12.2304C13.778 12.2566 13.951 12.2829 14.0725 12.3027C14.1333 12.3127 14.1814 12.321 14.2148 12.327L14.2536 12.3341L14.2644 12.3361L14.2675 12.3367L14.2691 12.337C14.5629 12.3935 14.7552 12.6775 14.6987 12.9712C14.6422 13.2649 14.3581 13.4572 14.0644 13.4008L14.063 13.4005L14.0557 13.3992L14.0241 13.3934C13.9956 13.3883 13.9529 13.3809 13.8977 13.3719C13.7874 13.3538 13.6278 13.3296 13.4343 13.3052C13.0454 13.2564 12.5278 13.2084 12.0001 13.2084C11.4724 13.2084 10.9548 13.2564 10.5659 13.3052C10.3724 13.3296 10.2128 13.3538 10.1024 13.3719C10.0473 13.3809 10.0046 13.3883 9.97611 13.3934L9.94445 13.3992L9.93714 13.4005Z" fill="#121212"/>
<path d="M23.3201 15V6.27273H26.4309C27.1099 6.27273 27.6724 6.39631 28.1184 6.64347C28.5645 6.89062 28.8983 7.22869 29.1199 7.65767C29.3414 8.08381 29.4522 8.56392 29.4522 9.09801C29.4522 9.63494 29.34 10.1179 29.1156 10.5469C28.894 10.973 28.5588 11.3111 28.1099 11.5611C27.6639 11.8082 27.1028 11.9318 26.4267 11.9318H24.2875V10.8153H26.3074C26.7363 10.8153 27.0843 10.7415 27.3514 10.5938C27.6184 10.4432 27.8145 10.2386 27.9395 9.98011C28.0645 9.72159 28.127 9.42756 28.127 9.09801C28.127 8.76847 28.0645 8.47585 27.9395 8.22017C27.8145 7.96449 27.617 7.7642 27.3471 7.61932C27.0801 7.47443 26.7278 7.40199 26.2903 7.40199H24.6369V15H23.3201ZM30.8936 15V8.45455H32.1252V9.49432H32.1934C32.3127 9.14205 32.5229 8.86506 32.824 8.66335C33.128 8.45881 33.4718 8.35653 33.8553 8.35653C33.9348 8.35653 34.0286 8.35937 34.1365 8.36506C34.2473 8.37074 34.334 8.37784 34.3965 8.38636V9.60511C34.3453 9.59091 34.2544 9.57528 34.1238 9.55824C33.9931 9.53835 33.8624 9.52841 33.7317 9.52841C33.4306 9.52841 33.1621 9.59233 32.9263 9.72017C32.6934 9.84517 32.5087 10.0199 32.3723 10.2443C32.236 10.4659 32.1678 10.7187 32.1678 11.0028V15H30.8936ZM38.0218 15.1321C37.4082 15.1321 36.8727 14.9915 36.4153 14.7102C35.9579 14.429 35.6028 14.0355 35.35 13.5298C35.0971 13.0241 34.9707 12.4332 34.9707 11.7571C34.9707 11.0781 35.0971 10.4844 35.35 9.97585C35.6028 9.46733 35.9579 9.07244 36.4153 8.79119C36.8727 8.50994 37.4082 8.36932 38.0218 8.36932C38.6355 8.36932 39.171 8.50994 39.6284 8.79119C40.0858 9.07244 40.4409 9.46733 40.6937 9.97585C40.9466 10.4844 41.073 11.0781 41.073 11.7571C41.073 12.4332 40.9466 13.0241 40.6937 13.5298C40.4409 14.0355 40.0858 14.429 39.6284 14.7102C39.171 14.9915 38.6355 15.1321 38.0218 15.1321ZM38.0261 14.0625C38.4238 14.0625 38.7534 13.9574 39.0147 13.7472C39.2761 13.5369 39.4693 13.2571 39.5943 12.9077C39.7221 12.5582 39.786 12.1733 39.786 11.7528C39.786 11.3352 39.7221 10.9517 39.5943 10.6023C39.4693 10.25 39.2761 9.96733 39.0147 9.75426C38.7534 9.54119 38.4238 9.43466 38.0261 9.43466C37.6255 9.43466 37.2931 9.54119 37.0289 9.75426C36.7676 9.96733 36.573 10.25 36.4451 10.6023C36.3201 10.9517 36.2576 11.3352 36.2576 11.7528C36.2576 12.1733 36.3201 12.5582 36.4451 12.9077C36.573 13.2571 36.7676 13.5369 37.0289 13.7472C37.2931 13.9574 37.6255 14.0625 38.0261 14.0625Z" fill="#121212"/>
</svg>
